<?xml version="1.0" encoding="UTF-8"?>
<svg viewBox="0 0 165.22336 121.8363" xmlns="http://www.w3.org/2000/svg">
 <g transform="translate(-200.85 -50.526)">
  <path transform="matrix(1.5319 0 0 1.8038 -171.73 -72.188)" d="m351.07 116.65a53.929 18.929 0 1 1 -107.86 0 53.929 18.929 0 1 1 107.86 0z" fill="#282828"/>
  <path d="m234.27 142.76c39.099 21.906 69.362 15.03 97.415 0.95504l-11.938-76.404c-2.2819-14.604-56.177-21.53-60.049-8.7148l-25.428 84.164z" fill="#282828" stroke="#353535" stroke-width="2.6741"/>
  <path d="m262.03 65.467-16.643 56.927 5.2011 2.7398 16.346-56.318-4.9039-3.3487z" fill="#4b4b4b" fill-opacity=".80784"/>
  <path d="m239.29 127c28.644 13.831 61.633 18.493 89.775 1.6713l2.6264 14.803-6.6853 3.5814-14.087 5.2528-12.893 3.1039-11.699 1.1938h-10.028l-11.699-1.9101-16.475-5.014-11.938-5.4915-2.1488-1.4326 5.2528-15.758z"/>
  <path d="m319.97 67.4c-2.2819-14.604-56.392-21.623-60.488-8.7165 17.066 13.696 40.12 16.536 60.488 8.7165z" fill="#353535"/>
  <path d="m218.76 133.21c-1.4591 3.734-1.4398 8.3111 1.5696 11.387 2.9835 3.0497 6.5811 5.4745 10.451 7.0082 15.547 6.1612 32.008 11.26 48.533 14.278 1.8889 0.34494 3.9698 2.9731 0.74243 3.002-25.377-1.3843-65.757-10.526-72.707-27.249-2.1901-5.2694-0.10362-12.041 5.2153-14.166 2.3149-0.92501 8.9012-3.9133 8.5439 0.36534-0.163 1.952-1.6306 3.537-2.3487 5.3748z" fill="#646464" fill-opacity=".80784"/>
  <path d="m249.73 128.13-4.1821 19.446 25.549 7.8433 2.8852-20.659-24.252-6.6304zm3.4282 4.1645 16.559 4.8515-2.2747 13.293-16.96-5.369 2.6762-12.776z" fill="#ffcd1e" stroke="#ffcd1e" stroke-width="1.3157"/>
  <path d="m234.27 142.76c39.099 21.906 69.362 15.03 97.415 0.95504l-11.938-76.404c-2.2819-14.604-56.177-21.53-60.049-8.7148l-25.428 84.164z" fill="none" stroke="#353535" stroke-width="2.6741"/>
 </g>
</svg>
