<?xml version="1.0" encoding="UTF-8"?>
<svg viewBox="0 0 558.7309 402.18991" xmlns="http://www.w3.org/2000/svg">
 <g transform="translate(-360.31 -728.2)">
  <path d="m829.77 1071.7c-17.435-2.5723-62.644-9.1348-100.46-14.583s-69.564-10.148-70.54-10.443c-1.2169-0.3679-1.9328 0.065-2.2758 1.3766-0.3871 1.4804-1.641 2.0474-5.54 2.505-6.9372 0.8143-10.556 0.1354-27.961-5.2445-8.3152-2.5703-17.924-5.3998-21.353-6.2878-3.7491-0.971-6.939-2.4646-8.0023-3.7468-4.8332-5.8286-4.4702-22.642 0.6483-30.028 1.4501-2.0925 3.2436-3.8045 3.9856-3.8045 2.8404 0-2.3444-12.569-5.2918-12.829l-2.8375-0.2563c-3.4385-0.322-1.3705-1.7478 7.6705-5.2886 5.5338-2.1673 12.193-4.8865 14.798-6.0427 3.7029-1.6434 4.9802-1.8427 5.8523-0.9134 0.8434 0.8988 0.7722 1.3132-0.292 1.6987-5.268 1.9081-7.1395 7.9408-4.9305 15.893l0.9664 3.4788 22.681 1.1688c12.475 0.6428 23.669 1.4329 24.876 1.7557 1.627 0.4352 2.1946 1.3079 2.1946 3.3743 0 2.1106 0.7105 3.1548 2.9261 4.3006 1.6094 0.8322 2.9262 1.7647 2.9262 2.0721s-1.2786 1.7534-2.8413 3.2132c-5.4058 5.0498-6.1208 16.879-1.1801 19.523 3.6909 1.9753 110 18.987 156.08 24.977 26.5 3.4445 48.406 6.4866 48.68 6.7602s-0.5784 3.0252-1.8934 6.1144c-1.9327 4.5403-2.8502 5.6472-4.7872 5.7749-1.318 0.087-16.661-1.9467-34.096-4.5191zm-2.4385-27.905c-21.995-3.4245-66.326-10.218-98.514-15.097s-59.138-9.068-59.888-9.309c-1.0411-0.3342-0.8203-1.0185 0.9298-2.8814 1.9346-2.0593 2.9151-2.3618 6.2423-1.9257 2.1709 0.2845 17.334 2.4724 33.696 4.862 44.917 6.5599 80.76 11.782 107.29 15.633 13.143 1.9075 30.8 4.4738 39.236 5.7028s15.628 2.5238 15.981 2.8771c1.1271 1.1271-1.7297 6.5619-3.3963 6.4611-0.8738-0.053-19.584-2.8981-41.579-6.3226zm38.04-12.738c-1.6094-0.1827-8.4127-0.8105-15.118-1.395-12.08-1.0529-30.17-3.1853-41.454-4.8865-3.2188-0.4852-9.5832-1.3-14.143-1.8105-15.53-1.7389-29.282-5.28-40.478-10.423-7.1761-3.2965-14.54-9.6341-17.587-15.135-2.6201-4.7305-2.8924-6.0632-2.8614-14.006 0.0339-8.6743 0.0947-8.8932 5.1307-18.444 5.0124-9.5061 8.1992-13.987 15.199-21.372 1.943-2.0499 3.5328-4.1348 3.5328-4.6331s0.5486-0.92 1.2192-0.9372 3.1944-2.2182 5.6085-4.891 7.6811-8.2851 11.705-12.472c9.452-9.8351 25.273-26.409 42.429-44.448 7.5105-7.8971 15.411-15.967 17.557-17.933 8.0034-7.3329 16.094-15.748 16.094-16.739 0-1.2902-4.9185-1.3313-8.2393-0.0687-1.3827 0.5257-2.9848 1.9891-3.5602 3.252-1.0907 2.3938-1.8897 2.8427-25.753 14.468-12.422 6.0519-15.448 7.1478-20.047 7.2603l-5.4161 0.1325-1.6712-8.1189c-0.9192-4.4654-1.9009-8.7175-2.1816-9.4491-0.3514-0.9156 1.1737-1.9027 4.8927-3.1668 6.513-2.2138 7.0678-3.7525 1.0264-2.8466-4.8229 0.7232-9.2787-0.0265-9.2787-1.5614 0-0.5431 0.7681-1.2645 1.7069-1.6032s2.8151-1.3817 4.1695-2.3178 4.8658-2.1828 7.8031-2.7705 12.228-2.5304 20.647-4.3171c13.898-2.9497 15.603-3.1239 18.531-1.8929 2.4925 1.048 4.1528 1.1219 7.3154 0.3255 6.3081-1.5884 16.539-1.3003 19.356 0.5451 2.0433 1.3388 2.4041 2.3339 2.4041 6.629 0 7.8118-6.1198 16.235-25.934 35.696-51.33 50.416-63.026 62.411-76.087 78.034-11.079 13.252-17.951 26.65-17.951 34.998 0 3.8355 4.2838 11.489 6.8942 12.318 1.0363 0.3289 1.8842 1.0074 1.8842 1.5077s0.6644 0.9097 1.4763 0.9097 2.2385 0.4286 3.17 0.9524c6.3575 3.5752 27.318 7.9243 49.488 10.268 18.965 2.0052 44.582 5.9084 55.231 8.4154l8.4129 1.9805 0.6046 4.4111c0.6454 4.7084 0.226 6.2483-1.6379 6.0138-0.639-0.08-2.4785-0.2957-4.0878-0.4784zm-331.14-32.954c-2.4141-0.6924-12.691-5.3347-22.838-10.316l-18.448-9.0575 3.5629-1.8279c7.0538-3.6188 9.4758-9.9877 10.14-26.665 0.4688-11.767 1.028-14.078 3.4197-14.128s7.5121 15.101 7.5799 22.419c0.0248 2.6754 0.2546 3.0974 1.0622 1.9508 0.7387-1.0487 0.9074 1.8209 0.5956 10.131l-0.435 11.594 3.2842 3.6352c2.3561 2.6079 5.3556 4.3907 10.614 6.3084 8.7691 3.1983 10.714 2.8366 9.9534-1.851l-0.5373-3.3111 26.992-10.953c46.573-18.9 102.01-40.93 104.05-41.345 3.1104-0.6347 3.0968-0.7023-0.3028-1.5071-3.5104-0.831 2.883-3.126-86.994 31.228-22.8 8.7147-42.161 16.04-43.026 16.278s-1.8209-0.214-2.1247-1.0056c-0.4191-1.0922 2.5467-2.6637 12.302-6.5183 26.065-10.299 44.279-17.417 52.357-20.461 4.5599-1.7181 10.151-3.9628 12.426-4.9883s4.4024-1.8644 4.7295-1.8644 1.9779-0.5988 3.6683-1.3306 4.8293-2.0128 6.9751-2.8465c14.322-5.5648 15.118-5.9724 15.118-7.7376 0-0.991-0.5916-2.0289-1.3148-2.3064s-25.177 8.494-54.343 19.492-53.144 19.88-53.286 19.738c-0.3703-0.3703-9.0778-57.817-9.0778-59.89 0-1.2023 1.5538-2.2749 5.1208-3.5347 2.8164-0.9948 18.069-6.6293 33.895-12.521s39.528-14.667 52.671-19.5 29.51-10.856 36.371-13.385 13.199-5.3217 14.085-6.2076c3.6086-3.6086 0.3983-2.9151-19.244 4.1572-6.1693 2.2212-14.07 4.9529-17.557 6.0704-24.231 7.7649-91.998 30.647-96.075 32.441-4.0963 1.802-10.307 3.7294-10.704 3.3217-0.1826-0.1876-0.4824-1.8402-0.6662-3.6724l-0.3343-3.3314 34.626-12.129c86.093-30.156 77.555-26.94 74.269-27.983-1.878-0.596-8.3653 0.916-14.282 3.329-1.0729 0.4375-6.7789 2.3495-12.68 4.2487-59.248 19.069-78.376 25.284-80.351 26.109-1.2764 0.5327-2.5931 0.6954-2.9262 0.3615-0.7244-0.7263-0.376-19.55 0.4076-22.019 0.3812-1.201 1.9447-1.9072 5.1322-2.318 5.3711-0.6923-3.7263 2.0292 125.04-37.408 56.06-17.169 104.23-31.509 107.05-31.867 3.6957-0.4696 5.1208-0.3247 5.1208 0.5206 0 0.6762 0.6641 0.9164 1.5711 0.5684 1.3177-0.5056 1.4957-0.0112 1.104 3.0657-0.2849 2.2383 1.214 11.844 3.8446 24.639 7.8282 38.075 12.988 65.606 12.988 69.298 0 2.0626-0.7395 4.4959-1.7069 5.6164-3.1336 3.6294 0.1065 2.2149-141.6 61.819-11.495 4.8349-21.978 8.9862-23.295 9.2249s-16.052 5.8681-32.746 12.51c-48.036 19.111-45.692 18.444-55.224 15.71zm-82.908-9.1634c-3.7916-1.7181-6.9522-4.6609-12.196-11.356-6.0795-7.7618-10.908-15.785-10.029-16.665 1.5841-1.5841 6.1263 1.3139 10.214 6.5162 7.4037 9.4238 12.998 11.71 18.35 7.4999 2.6604-2.0927 2.6915-2.2418 2.093-10.028-0.6294-8.1882-2.9192-17.576-4.5297-18.571-0.5082-0.3141-3.679 0.5111-7.0462 1.8336-11.098 4.359-21.285 7.7126-21.816 7.1818-0.2872-0.2872-1.7784-4.0367-3.3136-8.3323-8.0876-22.628-9.4695-46.748-3.113-54.333 0.9062-1.0814 5.615-3.2158 10.544-4.7795 9.9051-3.1424 14.622-3.0482 18.869 0.3767 5.1217 4.1303 6.7375 4.2932 15.024 1.5152l7.6855-2.5766 2.3959 2.246c1.3178 1.2353 4.3397 5.1675 6.7155 8.7383 13.974 21.004 23.336 58.346 17.718 70.676-1.0351 2.2718-7.1869 5.1698-14.173 6.6768-1.752 0.3779-3.9466 1.7898-4.8769 3.1376-3.5901 5.2012-4.9984 5.9704-15.547 8.4928-5.8662 1.4027-10.854 2.5194-11.085 2.4817s-1.0776-0.3669-1.8822-0.7315zm51.769-98.615c-3.7251-3.7251-4.6935-12.701-1.7707-16.412 1.4043-1.7829 4.0756-1.49 6.0215 0.6602 5.7478 6.3513 1.6252 21.627-4.2509 15.751zm-52.253-10.072c-0.3146-1.7435-1.377-7.9547-2.3608-13.803l-1.7888-10.633 3.1313-3.4169c4.8205-5.2601 9.5205-5.2406 31.739 0.1316 9.9245 2.3997 22.434 5.3706 27.798 6.602s9.934 2.3693 10.154 2.5286c0.813 0.588-3.1927 4.2031-4.6571 4.2031-0.8337 0-13.775-3.0957-28.759-6.8793l-27.243-6.8793-2.7357 2.621c-3.9605 3.7944-4.641 10.605-1.9593 19.609 2.5743 8.644 2.5572 9.0853-0.3521 9.0853-1.9336 0-2.5043-0.6099-2.9663-3.17zm17.553-35.33-3.9015-1.2858 3.3547-0.1023c3.4898-0.1064 20.825-5.0429 135.64-38.625 37.82-11.062 71.618-20.727 75.105-21.476 5.6613-1.2168 10.412-1.1056 44.38 1.0388 20.922 1.3208 38.918 2.5294 39.991 2.6856 2.9274 0.4263-4.7975 3.6042-8.7613 3.6042-1.7371 0-18.301-1.3186-36.808-2.9303l-33.65-2.9302-11.11 3.3379c-6.1106 1.8359-34.373 10.206-62.806 18.601-94.891 28.016-101.36 29.929-117.42 34.736-17.238 5.1579-18.133 5.2828-24.007 3.3469z"/>
 </g>
</svg>
